<svg width="13" height="15" viewBox="0 0 13 15" fill="none" xmlns="http://www.w3.org/2000/svg">
<path d="M5.21394 13.6239L5.76542 13.9247C5.86568 14.025 5.91582 14.025 6.01609 14.025C6.11635 14.025 6.16649 14.025 6.26676 13.9749L6.81823 13.6741C9.82627 11.9194 12.0322 10.666 12.0322 6.55503V2.49417C12.0322 2.29363 11.8818 2.0931 11.6812 2.04296L6.16649 0.0376005C6.06622 -0.0125335 5.91582 -0.0125335 5.81555 0.0376005L0.300804 2.04296C0.150402 2.0931 0 2.29363 0 2.49417V6.50489C0 10.666 2.2059 11.9194 5.21394 13.6239Z" fill="black" fill-opacity="0.35"/>
<path d="M8.53661 4.9869C8.22238 4.67267 7.80464 4.49951 7.36015 4.49951C6.91579 4.49951 6.49792 4.67255 6.18369 4.9869L6.01552 5.15495L5.84748 4.9869C5.53325 4.67255 5.11538 4.49951 4.67102 4.49951C4.22653 4.49951 3.80878 4.67267 3.49455 4.9869C2.84589 5.63556 2.84589 6.69116 3.49455 7.34006L5.84759 9.69286C5.89394 9.73933 5.95479 9.76251 6.01564 9.76251C6.07649 9.76251 6.13722 9.73933 6.18369 9.69286L8.53673 7.34006C8.85108 7.02571 9.02412 6.60785 9.02412 6.16348C9.02412 5.71911 8.85084 5.30113 8.53661 4.9869ZM7.20399 7.3687H6.7286C6.6491 7.3687 6.57493 7.32901 6.53084 7.26281L6.3061 6.92576L5.99853 7.6947C5.96573 7.77658 5.89026 7.83363 5.80243 7.84278C5.79423 7.84361 5.78591 7.84409 5.77783 7.84409C5.69892 7.84409 5.6244 7.80475 5.58007 7.7382L5.22104 7.1997L4.93331 7.34351C4.81589 7.4021 4.67304 7.35468 4.61433 7.23714C4.55562 7.1196 4.60327 6.97698 4.72069 6.91816L5.19608 6.68046C5.30328 6.62698 5.43365 6.66145 5.50021 6.76128L5.72495 7.09833L6.03252 6.32939C6.06532 6.24739 6.14079 6.19046 6.22862 6.18119C6.3168 6.17168 6.40201 6.21233 6.45098 6.28577L6.85577 6.89332H7.20399C7.3352 6.89332 7.44168 6.9998 7.44168 7.13101C7.44168 7.26222 7.3352 7.3687 7.20399 7.3687Z" fill="white"/>
</svg>
